<svg width="14" height="14" viewBox="0 0 14 14" fill="none" xmlns="http://www.w3.org/2000/svg">
<path fill-rule="evenodd" clip-rule="evenodd" d="M6.06649 10.5511C7.25585 10.5511 8.39649 10.0787 9.23749 9.23774C10.0785 8.39678 10.551 7.2562 10.551 6.06691C10.551 4.87762 10.0785 3.73703 9.23749 2.89608C8.39649 2.05512 7.25585 1.58268 6.06649 1.58268C4.87714 1.58268 3.7365 2.05512 2.8955 2.89608C2.05449 3.73703 1.58203 4.87762 1.58203 6.06691C1.58203 7.2562 2.05449 8.39678 2.8955 9.23774C3.7365 10.0787 4.87714 10.5511 6.06649 10.5511ZM6.06649 12.1338C7.40262 12.136 8.70177 11.6952 9.76064 10.8803L12.6296 13.7481C12.7021 13.8259 12.7895 13.8882 12.8865 13.9315C12.9836 13.9747 13.0884 13.998 13.1947 13.9999C13.3009 14.0018 13.4065 13.9822 13.505 13.9424C13.6035 13.9026 13.6931 13.8434 13.7682 13.7682C13.8434 13.6931 13.9026 13.6036 13.9424 13.505C13.9822 13.4065 14.0018 13.301 13.9999 13.1947C13.998 13.0885 13.9747 12.9837 13.9315 12.8866C13.8882 12.7895 13.8259 12.7022 13.7481 12.6297L10.8802 9.76086C11.7141 8.67444 12.1559 7.33783 12.1336 5.96846C12.1114 4.59909 11.6265 3.27752 10.7578 2.21873C9.88902 1.15994 8.68758 0.426213 7.34886 0.13691C6.01014 -0.152393 4.61292 0.0197455 3.38446 0.625325C2.15601 1.2309 1.1686 2.23429 0.582852 3.47228C-0.00289402 4.71027 -0.152515 6.11001 0.158328 7.44382C0.46917 8.77764 1.22219 9.96704 2.29489 10.8186C3.36759 11.6701 4.69687 12.1336 6.06649 12.1338ZM6.85787 3.95668C6.85787 3.74681 6.77449 3.54553 6.62608 3.39712C6.47767 3.24872 6.27638 3.16535 6.06649 3.16535C5.85661 3.16535 5.65532 3.24872 5.50691 3.39712C5.35849 3.54553 5.27512 3.74681 5.27512 3.95668V5.27557H3.95616C3.74627 5.27557 3.54498 5.35895 3.39657 5.50735C3.24816 5.65576 3.16478 5.85703 3.16478 6.06691C3.16478 6.27678 3.24816 6.47806 3.39657 6.62647C3.54498 6.77487 3.74627 6.85824 3.95616 6.85824H5.27512V8.17714C5.27512 8.38701 5.35849 8.58829 5.50691 8.73669C5.65532 8.8851 5.85661 8.96847 6.06649 8.96847C6.27638 8.96847 6.47767 8.8851 6.62608 8.73669C6.77449 8.58829 6.85787 8.38701 6.85787 8.17714V6.85824H8.17683C8.38672 6.85824 8.58801 6.77487 8.73642 6.62647C8.88483 6.47806 8.96821 6.27678 8.96821 6.06691C8.96821 5.85703 8.88483 5.65576 8.73642 5.50735C8.58801 5.35895 8.38672 5.27557 8.17683 5.27557H6.85787V3.95668Z" fill="white"/>
</svg>
